# xmcd CD database file
#
# Track frame offsets:
#	150
#	12010
#	23555
#	37234
#	50167
#	63771
#	85002
#	98538
#	111721
#	123604
#	138244
#	157367
#	171910
#	191158
#	206297
#	236633
#	250617
#	266854
#	295364
#	311144
#
# Disc length: 4684 seconds
#
# Revision: 1
# Processed by: cddbd v1.5.2PL0 Copyright (c) Steve Scherf et al.
# Submitted via: CDex 1.70beta2
#
DISCID=28124a14
DTITLE=Louis Amstrong - Fireworks CD2
DYEAR=1900
DGENRE=Jazz
TTITLE0=Jubilee
TTITLE1=Shadrack
TTITLE2=Cain and Abel
TTITLE3=2:19 Blues
TTITLE4=Hey Lawdy Mama
TTITLE5=Ain't Misbehavin
TTITLE6=I wonder
TTITLE7=You won't be satisfied
TTITLE8=Blues for yesterday
TTITLE9=Where the blues were born
TTITLE10=Back o'town blues
TTITLE11=Some day
TTITLE12=A song was born
TTITLE13=My sweet hunk o'trash
TTITLE14=New orleans function
TTITLE15=You rascal you
TTITLE16=My monday date
TTITLE17=Basin street blues
TTITLE18=Ole miss
TTITLE19=St Louis blues
EXTD=
EXTT0=
EXTT1=
EXTT2=
EXTT3=
EXTT4=
EXTT5=
EXTT6=
EXTT7=
EXTT8=
EXTT9=
EXTT10=
EXTT11=
EXTT12=
EXTT13=
EXTT14=
EXTT15=
EXTT16=
EXTT17=
EXTT18=
EXTT19=
PLAYORDER=
